<svg xmlns="http://www.w3.org/2000/svg" width="900" height="600"><path fill="#de2910" d="M0 0h900v600H0z"/><g fill="#ffde00"><path d="m79.3 180 13.9 42.7h44.9L106 257.3l13.9 42.7-32.1-23.3-32.1 23.3 13.9-42.7-32.1-34.6h44.9z"/><path d="m234.2 130.2 7.4 22.6h23.8l-19.3 14 7.4 22.6-19.3-14-19.3 14 7.4-22.6-19.3-14h23.8z"/><path d="m234.2 217.3 7.4 22.6h23.8l-19.3 14 7.4 22.6-19.3-14-19.3 14 7.4-22.6-19.3-14h23.8z"/><path d="m163.8 262.3 7.4 22.6h23.8l-19.3 14 7.4 22.6-19.3-14-19.3 14 7.4-22.6-19.3-14h23.8z"/><path d="m163.8 181.2 7.4 22.6h23.8l-19.3 14 7.4 22.6-19.3-14-19.3 14 7.4-22.6-19.3-14h23.8z"/></g></svg>